<?xml version="1.0" encoding="UTF-8" standalone="no"?>
<!DOCTYPE svg PUBLIC "-//W3C//DTD SVG 1.1//EN" "http://www.w3.org/Graphics/SVG/1.1/DTD/svg11.dtd">
<svg width="100%" height="100%" viewBox="0 0 1920 1080" version="1.1" xmlns="http://www.w3.org/2000/svg" xmlns:xlink="http://www.w3.org/1999/xlink" xml:space="preserve" xmlns:serif="http://www.serif.com/" style="fill-rule:evenodd;clip-rule:evenodd;stroke-linejoin:round;stroke-miterlimit:2;">
    <g transform="matrix(1,0,0,1,-3327.98,-1449.38)">
        <g transform="matrix(0.999014,0,0,0.994962,3328.08,1450.68)">
            <rect id="_1" serif:id="1" x="-0.103" y="-1.314" width="1921.9" height="1085.47" style="fill:none;"/>
            <clipPath id="_clip1">
                <rect id="_11" serif:id="1" x="-0.103" y="-1.314" width="1921.9" height="1085.47"/>
            </clipPath>
            <g clip-path="url(#_clip1)">
                <g transform="matrix(1.00099,0,0,1.00506,-3331.37,-1458.03)">
                    <path d="M5259.29,1439.08L5259.29,2551.06L3323.83,2551.06L3323.83,1439.08L5259.29,1439.08ZM4240.74,1827.57L4205.76,1792.59L4041.15,1792.59L4041.15,1852.44L4056.75,1852.44L4056.75,1978.3L4041.15,1978.3L4041.15,2038.31L4205.76,2038.31L4240.74,2003.84L4240.74,1827.57ZM4181.24,1852.44L4181.24,1978.3L4116.42,1978.3L4116.42,1852.44L4181.24,1852.44ZM4399.17,1948.12L4399.17,1978.47L4334.53,1978.47L4334.53,1852.78L4350.13,1852.78L4350.13,1793.11L4259.43,1793.11L4259.43,1852.78L4275.03,1852.78L4275.03,1978.47L4259.43,1978.47L4259.43,2038.31L4458.67,2038.31L4458.67,1948.12L4399.17,1948.12ZM3935.18,1793.11L3935.18,1852.95L3950.78,1852.95L3950.78,1978.64L3886.14,1978.64L3886.14,1852.95L3901.74,1852.95L3901.74,1793.11L3811.03,1793.11L3811.03,1852.95L3826.64,1852.95L3826.64,2004.19L3861.62,2038.48L3975.47,2038.48L4010.28,2004.19L4010.28,1852.95L4026.06,1852.95L4026.06,1793.11L3935.18,1793.11ZM4710.05,1978.47L4691.7,1978.47L4627.4,1793.28L4560.53,1793.28L4496.05,1978.47L4477.71,1978.47L4477.71,2038.31L4569.27,2038.31L4569.27,1978.47L4560.87,1978.47L4566.36,1960.12L4621.4,1960.12L4626.89,1978.47L4618.48,1978.47L4618.48,2038.31L4710.05,2038.31L4710.05,1978.47ZM4604.94,1906.79L4582.82,1906.79L4593.96,1870.95L4604.94,1906.79ZM3743.39,2124.8L3678.6,2128.83L3680.07,2152.52L3686.16,2152.14L3689.28,2202.37L3683.19,2202.75L3684.66,2226.44L3720.91,2224.19L3719.44,2200.5L3713.35,2200.88L3712.76,2191.46L3747.39,2189.31L3760.62,2174.64L3758.34,2137.92L3743.39,2124.8ZM3711.29,2167.68L3710.23,2150.64L3734.87,2149.12L3735.93,2166.15L3711.29,2167.68ZM3864.04,2191.34L3856.72,2191.79L3826.55,2119.74L3800.01,2121.39L3778.98,2196.62L3771.66,2197.07L3773.13,2220.86L3809.48,2218.6L3808,2194.81L3804.77,2195.01L3806.5,2187.55L3828.29,2186.2L3830.93,2193.39L3827.7,2193.59L3829.17,2217.38L3865.52,2215.12L3864.04,2191.34ZM3820.51,2165.48L3811.66,2166.03L3815.15,2151.49L3820.51,2165.48ZM3951.29,2186.02L3942.41,2175.3L3951.34,2165.19L3948.91,2126.09L3934.16,2113.06L3868.8,2117.12L3870.27,2140.9L3876.45,2140.52L3879.56,2190.47L3873.37,2190.85L3874.85,2214.64L3910.91,2212.4L3909.43,2188.61L3903.25,2189L3902.82,2182.15L3916.14,2181.32L3940.21,2210.58L3960.29,2209.34L3958.81,2185.55L3951.29,2186.02ZM3901.34,2158.36L3900.15,2139.05L3925.83,2137.45L3927.03,2156.77L3901.34,2158.36ZM3962.91,2111.56L3965.14,2147.53L3989.12,2146.04L3988.35,2133.76L3994.63,2133.38L3997.73,2183.32L3991.64,2183.7L3993.11,2207.3L4029.26,2205.05L4027.8,2181.46L4021.71,2181.84L4018.61,2131.89L4024.89,2131.5L4025.65,2143.77L4049.63,2142.28L4047.39,2106.32L3962.91,2111.56ZM4106.24,2101.9L4107.72,2125.69L4113.04,2125.36L4103.5,2143.91L4092.21,2126.65L4097.06,2126.35L4095.58,2102.56L4056.67,2104.98L4058.15,2128.76L4064.24,2128.39L4092.71,2168.64L4093.24,2177.11L4087.15,2177.49L4088.63,2201.37L4125.26,2199.1L4123.78,2175.22L4117.69,2175.59L4117.16,2167.12L4141.21,2123.61L4146.73,2123.27L4145.25,2099.48L4106.24,2101.9ZM4272.41,2092.45L4257.57,2139.5L4236.92,2094.65L4202.48,2096.79L4203.94,2120.29L4210.03,2119.91L4213.13,2169.86L4207.04,2170.24L4208.51,2193.83L4243.61,2191.65L4242.15,2168.06L4236.63,2168.4L4235.31,2147.09L4255.51,2190.92L4265.88,2190.27L4280.31,2144.3L4281.63,2165.61L4276.3,2165.94L4277.77,2189.53L4312.88,2187.36L4311.41,2163.76L4305.23,2164.14L4302.13,2114.19L4308.31,2113.81L4306.85,2090.31L4272.41,2092.45ZM4413.49,2157.23L4406.16,2157.69L4376,2085.64L4349.45,2087.28L4328.43,2162.51L4321.11,2162.97L4322.58,2186.75L4358.93,2184.5L4357.45,2160.71L4354.21,2160.91L4355.95,2153.45L4377.73,2152.1L4380.38,2159.29L4377.14,2159.49L4378.62,2183.28L4414.96,2181.02L4413.49,2157.23ZM4369.95,2131.38L4361.11,2131.93L4364.6,2117.38L4369.95,2131.38ZM4498.26,2091.9L4483.5,2078.87L4418.14,2082.93L4419.61,2106.62L4425.8,2106.23L4428.9,2156.28L4422.72,2156.66L4424.19,2180.45L4489.56,2176.39L4502.6,2161.83L4498.26,2091.9ZM4475.17,2103.17L4478.28,2153.21L4452.59,2154.81L4449.48,2104.76L4475.17,2103.17ZM4556.74,2073.94L4558.22,2097.82L4564.5,2097.43L4565.95,2120.74L4536.19,2075.22L4507.17,2077.02L4508.65,2100.9L4514.84,2100.51L4517.95,2150.75L4511.77,2151.13L4513.25,2175.01L4549.5,2172.76L4548.02,2148.88L4541.74,2149.27L4540.23,2124.92L4570.62,2171.45L4592.79,2170.08L4588.19,2095.96L4594.47,2095.57L4592.99,2071.69L4556.74,2073.94ZM4658.8,2104.19L4682.49,2102.72L4680.25,2066.56L4656.56,2068.03L4656.84,2072.6L4651.8,2068.33L4601.57,2071.45L4603.05,2095.23L4609.13,2094.85L4612.25,2144.99L4606.16,2145.37L4607.63,2169.06L4686.31,2164.18L4684.08,2128.31L4659.82,2129.81L4660.58,2141.99L4635.94,2143.52L4635.11,2130.2L4655.95,2128.91L4654.48,2105.31L4633.65,2106.61L4632.82,2093.38L4658.04,2091.82L4658.8,2104.19ZM4763.39,2093.49L4761.44,2062L4737.84,2063.46L4738.14,2068.22L4733.08,2063.76L4702.45,2065.66L4689.51,2080.31L4691.55,2113.14L4706.11,2126.27L4741.6,2124.07L4742.41,2137.01L4716.72,2138.6L4716.25,2131.09L4692.75,2132.55L4693.84,2150.15L4708.48,2162.9L4753.58,2160.1L4766.63,2145.63L4764.59,2112.81L4749.84,2099.78L4714.44,2101.97L4713.62,2088.75L4739.31,2087.16L4739.8,2094.96L4763.39,2093.49ZM4845.21,2088.41L4843.26,2056.92L4819.66,2058.39L4819.96,2063.14L4814.91,2058.68L4784.27,2060.58L4771.33,2075.23L4773.37,2108.06L4787.94,2121.19L4823.43,2118.99L4824.23,2131.93L4798.54,2133.53L4798.07,2126.01L4774.57,2127.47L4775.67,2145.07L4790.31,2157.82L4835.4,2155.02L4848.45,2140.55L4846.41,2107.73L4831.66,2094.7L4796.27,2096.89L4795.45,2083.67L4821.13,2082.08L4821.62,2089.88L4845.21,2088.41Z"/>
                </g>
            </g>
        </g>
    </g>
</svg>
